<?xml version="1.0" encoding="UTF-8" standalone="no"?>
<!-- Created with Inkscape (http://www.inkscape.org/) -->

<svg
   width="245.98199mm"
   height="280.15701mm"
   viewBox="0 0 245.98199 280.15701"
   version="1.1"
   id="svg1"
   xml:space="preserve"
   inkscape:export-filename="bluebird.png"
   inkscape:export-xdpi="96"
   inkscape:export-ydpi="96"
   inkscape:version="1.4.4 (dcaf3e7, 2026-05-05)"
   sodipodi:docname="bluebird-source.svg"
   xmlns:inkscape="http://www.inkscape.org/namespaces/inkscape"
   xmlns:sodipodi="http://sodipodi.sourceforge.net/DTD/sodipodi-0.dtd"
   xmlns="http://www.w3.org/2000/svg"
   xmlns:svg="http://www.w3.org/2000/svg"><sodipodi:namedview
     id="namedview1"
     pagecolor="#ffffff"
     bordercolor="#000000"
     borderopacity="0.25"
     inkscape:showpageshadow="2"
     inkscape:pageopacity="0.0"
     inkscape:pagecheckerboard="0"
     inkscape:deskcolor="#d1d1d1"
     inkscape:document-units="mm"
     inkscape:zoom="0.61796222"
     inkscape:cx="351.15415"
     inkscape:cy="521.87657"
     inkscape:window-width="1728"
     inkscape:window-height="976"
     inkscape:window-x="0"
     inkscape:window-y="33"
     inkscape:window-maximized="1"
     inkscape:current-layer="g31" /><defs
     id="defs1"><rect
       x="21.773771"
       y="947.15906"
       width="908.27734"
       height="258.17471"
       id="rect11" /><rect
       x="21.773771"
       y="947.15906"
       width="908.27734"
       height="258.17471"
       id="rect31" /></defs><g
     inkscape:label="Layer 1"
     inkscape:groupmode="layer"
     id="layer1"
     transform="translate(-2.0088714,-56.843222)"><g
       id="g31"
       transform="translate(0,20.000117)"
       inkscape:label="Combined"><g
         id="g11"
         transform="translate(21.928883,48.391025)"
         inkscape:label="Bird"><path
           style="display:inline;fill:#0173d0;fill-opacity:1;stroke:none;stroke-width:0.665;stroke-dasharray:none;stroke-opacity:1"
           d="m 161.33279,45.151766 c -8.44721,-0.01065 -18.76232,4.397319 -30.14493,18.528585 -2.19593,2.72619 -4.27754,5.394027 -6.25182,8.005196 16.77683,27.790759 5.25805,66.344553 -13.78727,86.340983 -6.4e-4,8e-4 -11.73281,14.74805 -26.219587,21.30826 49.279517,-10.44445 78.588307,-55.26352 84.243957,-72.99606 7.24667,-22.720998 12.28085,-35.94014 35.43763,-42.432553 l -20.30884,-6.446118 c 0,0 -8.89047,-12.290546 -22.96914,-12.308293 z"
           id="path3"
           inkscape:label="Body" /><path
           style="display:inline;fill:#022b5b;fill-opacity:1;stroke:none;stroke-width:0.665;stroke-dasharray:none;stroke-opacity:1"
           d="m 82.683842,127.99684 c -3.910583,5.16271 -27.857199,35.26945 -73.7024781,62.01792 38.0382981,5.79977 61.4605891,-4.11961 75.9478191,-10.67997 14.486837,-6.56018 26.218947,-21.30746 26.219587,-21.30826 0,0 6.28481,-20.72373 -17.812348,-27.87375 -2.86212,-0.84924 -6.578981,-1.50059 -10.65258,-2.15594 z"
           id="path4"
           inkscape:label="Tail" /><path
           style="display:inline;fill:#26b7f9;fill-opacity:1;stroke:none;stroke-width:0.665;stroke-dasharray:none;stroke-opacity:1"
           d="m 1.5312022,76.389973 c 0,0 16.6938878,0.319028 26.7109698,1.020802 10.017082,0.701774 18.629737,1.326745 33.346181,3.402671 13.93282,1.965386 37.458019,10.397909 45.255527,23.308304 7.79751,12.91039 11.50296,24.22039 9.01708,41.68272 -0.58471,4.10738 -4.71235,12.22202 -4.71235,12.22202 0,0 6.28475,-20.72381 -17.812406,-27.87383 C 85.580147,127.85131 71.548493,127.00553 61.144927,123.5849 15.308638,108.51423 1.5312022,76.389973 1.5312022,76.389973 Z"
           id="path2"
           sodipodi:nodetypes="csszscssc"
           inkscape:label="BottomWing" /><circle
           style="display:inline;fill:#ffffff;fill-opacity:1;stroke-width:0.289874"
           id="path5"
           cx="166.70935"
           cy="61.87569"
           r="4.0383177"
           inkscape:label="Eye" /><path
           id="path6"
           style="display:inline;fill:#52c6fa;fill-opacity:1;stroke:none;stroke-width:0.665;stroke-dasharray:none;stroke-opacity:1"
           d="m 20.00343,8.4521973 c 0,0 -5.095415,47.3706007 41.782463,72.3831787 0,0 0.0042,0.0024 0.01188,0.0078 13.957926,2.019757 37.287753,10.432719 45.046347,23.278684 7.79751,12.91039 11.50291,24.2204 9.01703,41.68273 -0.58469,4.10719 -4.712,12.22124 -4.71238,12.22199 24.86138,-26.10294 36.89757,-83.828336 -10.09034,-107.955169 z"
           inkscape:label="TopWing" /></g><text
         xml:space="preserve"
         transform="matrix(0.26458333,0,0,0.26458333,-0.91854197,-2.6807348)"
         id="text11"
         style="font-style:normal;font-variant:normal;font-weight:normal;font-stretch:normal;font-size:200px;font-family:'Noto Sans Linear A';-inkscape-font-specification:'Noto Sans Linear A';text-align:center;writing-mode:lr-tb;direction:ltr;white-space:pre;shape-inside:url(#rect11);display:none;fill:#0173d0;fill-opacity:1;stroke:none;stroke-width:2.51339;stroke-dasharray:none;stroke-opacity:1"
         x="361.60013"
         y="0"
         inkscape:label="Logo"><tspan
           x="68.587891"
           y="1129.6243"
           id="tspan1">bluebird</tspan></text><path
         d="m 182.65039,1074.2532 q 0,13.6718 -3.90625,24.6093 -3.80859,10.9375 -10.35156,18.3594 -6.9336,7.7149 -15.23438,11.6211 -8.30078,3.8086 -18.26172,3.8086 -9.27734,0 -16.21093,-2.2461 -6.9336,-2.1484 -13.67188,-5.8594 l -1.17187,5.0782 H 86.654297 V 977.67114 h 18.359373 v 54.29686 q 7.71485,-6.3476 16.40625,-10.3515 8.69141,-4.1016 19.53125,-4.1016 19.33594,0 30.46875,14.8437 11.23047,14.8438 11.23047,41.8946 z m -18.94531,0.4883 q 0,-19.5313 -6.44531,-29.5899 -6.44532,-10.1562 -20.80079,-10.1562 -8.00781,0 -16.21093,3.5156 -8.20313,3.418 -15.23438,8.8867 v 62.5 q 7.8125,3.5156 13.37891,4.8828 5.66406,1.3672 12.79297,1.3672 15.23437,0 23.82812,-9.9609 8.69141,-10.0586 8.69141,-31.4453 z m 66.11328,54.8828 H 211.45898 V 977.67114 h 18.35938 z m 126.75781,0 H 338.2168 v -12.1094 q -9.27735,7.3242 -17.77344,11.2305 -8.49609,3.9062 -18.75,3.9062 -17.1875,0 -26.75781,-10.4492 -9.57032,-10.5469 -9.57032,-30.8594 v -70.8008 h 18.35938 v 62.1094 q 0,8.3008 0.78125,14.2578 0.78125,5.8594 3.32031,10.0586 2.63672,4.2969 6.83594,6.25 4.19922,1.9531 12.20703,1.9531 7.12891,0 15.52734,-3.7109 8.4961,-3.7109 15.82032,-9.4727 v -81.4453 h 18.35937 z m 127.44141,-52.6368 h -80.3711 q 0,10.0586 3.02735,17.5782 3.02734,7.4218 8.30078,12.207 5.07812,4.6875 12.01172,7.0313 7.03125,2.3437 15.42969,2.3437 11.13281,0 22.36328,-4.3945 11.32812,-4.4922 16.11328,-8.7891 h 0.97656 v 20.0195 q -9.27734,3.9063 -18.94531,6.543 -9.66797,2.6367 -20.3125,2.6367 -27.14844,0 -42.38281,-14.6484 -15.23438,-14.7461 -15.23438,-41.7969 0,-26.7578 14.55078,-42.4805 14.64844,-15.7226 38.47656,-15.7226 22.07032,0 33.98438,12.8906 12.01172,12.8906 12.01172,36.6211 z m -17.8711,-14.0625 q -0.0976,-14.4531 -7.32421,-22.3632 -7.12891,-7.9102 -21.77735,-7.9102 -14.74609,0 -23.53515,8.6914 -8.69141,8.6914 -9.86329,21.582 z m 141.69922,11.3282 q 0,13.6718 -3.90625,24.6093 -3.80859,10.9375 -10.35156,18.3594 -6.93359,7.7149 -15.23437,11.6211 -8.30079,3.8086 -18.26172,3.8086 -9.27735,0 -16.21094,-2.2461 -6.93359,-2.1484 -13.67188,-5.8594 l -1.17187,5.0782 h -17.1875 V 977.67114 h 18.35937 v 54.29686 q 7.71485,-6.3476 16.40625,-10.3515 8.69141,-4.1016 19.53125,-4.1016 19.33594,0 30.46875,14.8437 11.23047,14.8438 11.23047,41.8946 z m -18.94531,0.4883 q 0,-19.5313 -6.44531,-29.5899 -6.44531,-10.1562 -20.80078,-10.1562 -8.00782,0 -16.21094,3.5156 -8.20313,3.418 -15.23438,8.8867 v 62.5 q 7.8125,3.5156 13.37891,4.8828 5.66406,1.3672 12.79297,1.3672 15.23437,0 23.82812,-9.9609 8.69141,-10.0586 8.69141,-31.4453 z m 67.28516,-72.461 h -20.70313 v -19.04295 h 20.70313 z m -1.17188,127.3438 H 636.6543 v -109.0821 h 18.35937 z m 104.39453,-89.0625 h -0.97656 q -4.10156,-0.9766 -8.00781,-1.3672 -3.8086,-0.4883 -9.08203,-0.4883 -8.4961,0 -16.40625,3.8086 -7.91016,3.7109 -15.23438,9.668 v 77.4414 H 691.3418 v -109.0821 h 18.35937 v 16.1133 q 10.9375,-8.789 19.23828,-12.4023 8.39844,-3.711 17.08985,-3.711 4.78515,0 6.93359,0.293 2.14844,0.1953 6.44531,0.8789 z m 105.76172,89.0625 h -18.35937 v -11.4258 q -7.91016,6.8359 -16.50391,10.6445 -8.59375,3.8086 -18.65234,3.8086 -19.53125,0 -31.05469,-15.0391 -11.42578,-15.039 -11.42578,-41.6992 0,-13.8672 3.90625,-24.707 4.0039,-10.8398 10.74219,-18.457 6.64062,-7.4219 15.42968,-11.3282 8.88672,-3.9062 18.35938,-3.9062 8.59375,0 15.23437,1.8555 6.64063,1.7578 13.96485,5.5664 v -47.26566 h 18.35937 z m -18.35937,-26.8555 v -62.5977 q -7.42188,-3.3203 -13.28125,-4.5898 -5.85938,-1.2695 -12.79297,-1.2695 -15.42969,0 -24.02344,10.7422 -8.59375,10.7421 -8.59375,30.4687 0,19.4336 6.64063,29.5898 6.64062,10.0586 21.28906,10.0586 7.8125,0 15.82031,-3.4179 8.00781,-3.5157 14.94141,-8.9844 z"
         id="text31"
         style="font-size:200px;font-family:'Noto Sans Linear A';-inkscape-font-specification:'Noto Sans Linear A';text-align:center;text-anchor:middle;white-space:pre;fill:#0173d0;stroke-width:2.51339"
         inkscape:label="Logo"
         transform="matrix(0.26458333,0,0,0.26458333,-0.91854197,-2.6807348)"
         aria-label="bluebird" /></g></g></svg>
