<?xml version="1.0" encoding="UTF-8"?>
<!-- Created with Inkscape (http://www.inkscape.org/) -->
<svg width="245mm" height="245mm" version="1.1" viewBox="0 0 245 245" xml:space="preserve" xmlns="http://www.w3.org/2000/svg"><g transform="translate(-2.0089 -56.843)"><g transform="translate(0 20)"><g transform="translate(21.438 59.234)"><path d="m161.33 45.152c-8.4472-0.01065-18.762 4.3973-30.145 18.529-2.1959 2.7262-4.2775 5.394-6.2518 8.0052 16.777 27.791 5.258 66.345-13.787 86.341-6.4e-4 8e-4 -11.733 14.748-26.22 21.308 49.28-10.444 78.588-55.264 84.244-72.996 7.2467-22.721 12.281-35.94 35.438-42.433l-20.309-6.4461s-8.8905-12.291-22.969-12.308z" fill="#0173d0"/><path d="m82.684 128c-3.9106 5.1627-27.857 35.269-73.702 62.018 38.038 5.7998 61.461-4.1196 75.948-10.68 14.487-6.5602 26.219-21.307 26.22-21.308 0 0 6.2848-20.724-17.812-27.874-2.8621-0.84924-6.579-1.5006-10.653-2.1559z" fill="#022b5b"/><path d="m1.5312 76.39s16.694 0.31903 26.711 1.0208 18.63 1.3267 33.346 3.4027c13.933 1.9654 37.458 10.398 45.256 23.308 7.7975 12.91 11.503 24.22 9.0171 41.683-0.58471 4.1074-4.7124 12.222-4.7124 12.222s6.2848-20.724-17.812-27.874c-7.7561-2.3014-21.788-3.1471-32.191-6.5678-45.836-15.071-59.614-47.195-59.614-47.195z" fill="#26b7f9"/><circle cx="166.71" cy="61.876" r="4.0383" fill="#fff" stroke-width=".28987"/><path d="m20.003 8.4522s-5.0954 47.371 41.782 72.383c0 0 0.0042 0.0024 0.01188 0.0078 13.958 2.0198 37.288 10.433 45.046 23.279 7.7975 12.91 11.503 24.22 9.017 41.683-0.58469 4.1072-4.712 12.221-4.7124 12.222 24.861-26.103 36.898-83.828-10.09-107.96z" fill="#52c6fa"/></g></g></g></svg>
