<?xml version="1.0" encoding="UTF-8"?>
<!-- Created with Inkscape (http://www.inkscape.org/) -->
<svg width="245.98mm" height="280.16mm" version="1.1" viewBox="0 0 245.98 280.16" xml:space="preserve" xmlns="http://www.w3.org/2000/svg"><g transform="translate(-2.0089 -56.843)"><g transform="translate(0 20)"><g transform="translate(21.929 48.391)"><path d="m161.33 45.152c-8.4472-0.01065-18.762 4.3973-30.145 18.529-2.1959 2.7262-4.2775 5.394-6.2518 8.0052 16.777 27.791 5.258 66.345-13.787 86.341-6.4e-4 8e-4 -11.733 14.748-26.22 21.308 49.28-10.444 78.588-55.264 84.244-72.996 7.2467-22.721 12.281-35.94 35.438-42.433l-20.309-6.4461s-8.8905-12.291-22.969-12.308z" fill="#0173d0"/><path d="m82.684 128c-3.9106 5.1627-27.857 35.269-73.702 62.018 38.038 5.7998 61.461-4.1196 75.948-10.68 14.487-6.5602 26.219-21.307 26.22-21.308 0 0 6.2848-20.724-17.812-27.874-2.8621-0.84924-6.579-1.5006-10.653-2.1559z" fill="#022b5b"/><path d="m1.5312 76.39s16.694 0.31903 26.711 1.0208 18.63 1.3267 33.346 3.4027c13.933 1.9654 37.458 10.398 45.256 23.308 7.7975 12.91 11.503 24.22 9.0171 41.683-0.58471 4.1074-4.7124 12.222-4.7124 12.222s6.2848-20.724-17.812-27.874c-7.7561-2.3014-21.788-3.1471-32.191-6.5678-45.836-15.071-59.614-47.195-59.614-47.195z" fill="#26b7f9"/><circle cx="166.71" cy="61.876" r="4.0383" fill="#fff" stroke-width=".28987"/><path d="m20.003 8.4522s-5.0954 47.371 41.782 72.383c0 0 0.0042 0.0024 0.01188 0.0078 13.958 2.0198 37.288 10.433 45.046 23.279 7.7975 12.91 11.503 24.22 9.017 41.683-0.58469 4.1072-4.712 12.221-4.7124 12.222 24.861-26.103 36.898-83.828-10.09-107.96z" fill="#52c6fa"/></g><text transform="matrix(.26458 0 0 .26458 -.91854 -2.6807)" x="361.60013" display="none" fill="#0173d0" font-family="'Noto Sans Linear A'" font-size="200px" stroke-width="2.5134" text-align="center" style="shape-inside:url(#rect11);white-space:pre" xml:space="preserve"><tspan x="68.587891" y="1129.6243">bluebird</tspan></text><path transform="matrix(.26458 0 0 .26458 -.91854 -2.6807)" d="m182.65 1074.3q0 13.672-3.9062 24.609-3.8086 10.938-10.352 18.359-6.9336 7.7149-15.234 11.621-8.3008 3.8086-18.262 3.8086-9.2773 0-16.211-2.2461-6.9336-2.1484-13.672-5.8594l-1.1719 5.0782h-17.188v-151.95h18.359v54.297q7.7148-6.3476 16.406-10.352 8.6914-4.1016 19.531-4.1016 19.336 0 30.469 14.844 11.23 14.844 11.23 41.895zm-18.945 0.4883q0-19.531-6.4453-29.59-6.4453-10.156-20.801-10.156-8.0078 0-16.211 3.5156-8.2031 3.418-15.234 8.8867v62.5q7.8125 3.5156 13.379 4.8828 5.6641 1.3672 12.793 1.3672 15.234 0 23.828-9.9609 8.6914-10.059 8.6914-31.445zm66.113 54.883h-18.359v-151.95h18.359zm126.76 0h-18.359v-12.109q-9.2774 7.3242-17.773 11.23-8.4961 3.9062-18.75 3.9062-17.188 0-26.758-10.449-9.5703-10.547-9.5703-30.859v-70.801h18.359v62.109q0 8.3008 0.78125 14.258 0.78125 5.8594 3.3203 10.059 2.6367 4.2969 6.8359 6.25t12.207 1.9531q7.1289 0 15.527-3.7109 8.4961-3.7109 15.82-9.4727v-81.445h18.359zm127.44-52.637h-80.371q0 10.059 3.0274 17.578 3.0273 7.4218 8.3008 12.207 5.0781 4.6875 12.012 7.0313 7.0312 2.3437 15.43 2.3437 11.133 0 22.363-4.3945 11.328-4.4922 16.113-8.7891h0.97656v20.02q-9.2773 3.9063-18.945 6.543t-20.312 2.6367q-27.148 0-42.383-14.648-15.234-14.746-15.234-41.797 0-26.758 14.551-42.48 14.648-15.723 38.477-15.723 22.07 0 33.984 12.891 12.012 12.891 12.012 36.621zm-17.871-14.062q-0.0976-14.453-7.3242-22.363-7.1289-7.9102-21.777-7.9102-14.746 0-23.535 8.6914-8.6914 8.6914-9.8633 21.582zm141.7 11.328q0 13.672-3.9062 24.609-3.8086 10.938-10.352 18.359-6.9336 7.7149-15.234 11.621-8.3008 3.8086-18.262 3.8086-9.2774 0-16.211-2.2461-6.9336-2.1484-13.672-5.8594l-1.1719 5.0782h-17.188v-151.95h18.359v54.297q7.7148-6.3476 16.406-10.352 8.6914-4.1016 19.531-4.1016 19.336 0 30.469 14.844 11.23 14.844 11.23 41.895zm-18.945 0.4883q0-19.531-6.4453-29.59-6.4453-10.156-20.801-10.156-8.0078 0-16.211 3.5156-8.2031 3.418-15.234 8.8867v62.5q7.8125 3.5156 13.379 4.8828 5.6641 1.3672 12.793 1.3672 15.234 0 23.828-9.9609 8.6914-10.059 8.6914-31.445zm67.285-72.461h-20.703v-19.043h20.703zm-1.1719 127.34h-18.359v-109.08h18.359zm104.39-89.062h-0.97656q-4.1016-0.9766-8.0078-1.3672-3.8086-0.4883-9.082-0.4883-8.4961 0-16.406 3.8086-7.9102 3.7109-15.234 9.668v77.441h-18.359v-109.08h18.359v16.113q10.938-8.789 19.238-12.402 8.3984-3.711 17.09-3.711 4.7852 0 6.9336 0.293 2.1484 0.1953 6.4453 0.8789zm105.76 89.062h-18.359v-11.426q-7.9102 6.8359-16.504 10.644t-18.652 3.8086q-19.531 0-31.055-15.039-11.426-15.039-11.426-41.699 0-13.867 3.9062-24.707 4.0039-10.84 10.742-18.457 6.6406-7.4219 15.43-11.328 8.8867-3.9062 18.359-3.9062 8.5938 0 15.234 1.8555 6.6406 1.7578 13.965 5.5664v-47.266h18.359zm-18.359-26.856v-62.598q-7.4219-3.3203-13.281-4.5898-5.8594-1.2695-12.793-1.2695-15.43 0-24.023 10.742-8.5938 10.742-8.5938 30.469 0 19.434 6.6406 29.59 6.6406 10.059 21.289 10.059 7.8125 0 15.82-3.4179 8.0078-3.5157 14.941-8.9844z" fill="#0173d0" stroke-width="2.5134" style="white-space:pre" aria-label="bluebird"/></g></g></svg>
